<?xml version="1.0" encoding="UTF-8" standalone="no"?>
<!DOCTYPE svg PUBLIC "-//W3C//DTD SVG 1.1//EN" "http://www.w3.org/Graphics/SVG/1.1/DTD/svg11.dtd">
<svg width="100%" height="100%" viewBox="0 0 371 601" version="1.1" xmlns="http://www.w3.org/2000/svg" xmlns:xlink="http://www.w3.org/1999/xlink" xml:space="preserve" xmlns:serif="http://www.serif.com/" style="fill-rule:evenodd;clip-rule:evenodd;stroke-linejoin:round;stroke-miterlimit:2;">
    <g transform="matrix(1,0,0,1,-279.5,-199.5)">
        <g transform="matrix(1.06058,0,0,1.02119,173.942,-16.9516)">
            <path d="M150,800L307.434,212.45L257.433,212.45L100,800" style="fill:rgb(59,130,246);"/>
        </g>
        <g transform="matrix(1,0,0,1.16333,0,-130.667)">
            <path d="M446.663,625.852L480.385,500L580.385,500L580.383,500.005C580.653,500.002 580.923,500 581.192,500C636.83,500 663.99,567.213 641.808,650C619.625,732.787 556.445,800 500.808,800C500.538,800 500.269,799.998 500.001,799.995L500,800L400,800L433.722,674.148L457.376,674.148C452.137,723.259 473.849,760 511.526,760C555.164,760 603.801,710.711 620.068,650C636.336,589.289 614.113,540 570.474,540C532.798,540 491.396,576.741 470.317,625.852L446.663,625.852Z" style="fill:rgb(59,130,246);"/>
        </g>
    </g>
</svg>
