<?xml version="1.0" encoding="UTF-8" standalone="no"?>
<!DOCTYPE svg PUBLIC "-//W3C//DTD SVG 1.1//EN" "http://www.w3.org/Graphics/SVG/1.1/DTD/svg11.dtd">
<svg width="100%" height="100%" viewBox="0 0 549 641" version="1.1" xmlns="http://www.w3.org/2000/svg" xmlns:xlink="http://www.w3.org/1999/xlink" xml:space="preserve" xmlns:serif="http://www.serif.com/" style="fill-rule:evenodd;clip-rule:evenodd;stroke-linejoin:round;stroke-miterlimit:2;">
    <g transform="matrix(1,0,0,1,-204.13,-159.5)">
        <g transform="matrix(0.645161,0,-0.33824,1.26233,-26.9154,-228.797)">
            <path d="M934,323.776C934,315.069 920.168,308 903.132,308L809.868,308C792.832,308 779,315.069 779,323.776L779,799.224C779,807.931 792.832,815 809.868,815L903.132,815C920.168,815 934,807.931 934,799.224L934,323.776Z" style="fill:rgb(59,130,246);"/>
        </g>
        <g transform="matrix(1,0,0,1.03528,0,-28.2209)">
            <path d="M482.893,490.641C487.139,474.793 503.907,461.926 520.314,461.926L640.587,461.926C723.374,461.926 770.291,537.669 745.293,630.963C720.295,724.257 632.787,800 550,800L429.728,800C413.321,800 403.448,787.133 407.694,771.285L482.893,490.641ZM620.146,510.222C574.613,510.222 523.149,564.324 505.293,630.963C487.438,697.602 509.908,751.704 555.441,751.704C600.974,751.704 652.438,697.602 670.293,630.963C688.149,564.324 665.679,510.222 620.146,510.222Z" style="fill:rgb(59,130,246);"/>
        </g>
    </g>
</svg>
