<?xml version="1.0" encoding="UTF-8" standalone="no"?>
<!DOCTYPE svg PUBLIC "-//W3C//DTD SVG 1.1//EN" "http://www.w3.org/Graphics/SVG/1.1/DTD/svg11.dtd">
<svg width="100%" height="100%" viewBox="0 0 552 641" version="1.1" xmlns="http://www.w3.org/2000/svg" xmlns:xlink="http://www.w3.org/1999/xlink" xml:space="preserve" xmlns:serif="http://www.serif.com/" style="fill-rule:evenodd;clip-rule:evenodd;stroke-linejoin:round;stroke-miterlimit:2;">
    <g transform="matrix(1,0,0,1,-200.556,-159.5)">
        <g transform="matrix(0.645161,0,-0.33824,1.26233,-26.9154,-228.797)">
            <path d="M934,311.598C934,309.612 930.846,308 926.961,308L786.039,308C782.154,308 779,309.612 779,311.598L779,811.402C779,813.388 782.154,815 786.039,815L926.961,815C930.846,815 934,813.388 934,811.402L934,311.598Z" style="fill:rgb(59,130,246);"/>
        </g>
        <g transform="matrix(1,0,0,1.03528,0,-28.2209)">
            <path d="M488.521,469.635C489.661,465.38 494.041,461.926 498.295,461.926L632.878,461.926C633.386,461.926 633.869,461.975 634.324,462.069C636.414,461.974 638.502,461.926 640.587,461.926C723.374,461.926 770.291,537.669 745.293,630.963C720.295,724.257 632.787,800 550,800C547.915,800 545.853,799.952 543.815,799.857C543.309,799.951 542.799,800 542.291,800L407.709,800C403.454,800 400.926,796.546 402.066,792.291L488.521,469.635ZM620.146,510.222C574.613,510.222 523.149,564.324 505.293,630.963C487.438,697.602 509.908,751.704 555.441,751.704C600.974,751.704 652.438,697.602 670.293,630.963C688.149,564.324 665.679,510.222 620.146,510.222Z" style="fill:rgb(59,130,246);"/>
        </g>
    </g>
</svg>
